<svg width="400" height="400" viewBox="0 0 400 400" fill="none" xmlns="http://www.w3.org/2000/svg">
  <rect width="400" height="400" fill="none" />
  <path d="M0 0H400" stroke="white" stroke-opacity="0.08" stroke-width="1" />
  <path d="M0 40H400" stroke="white" stroke-opacity="0.08" stroke-width="1" />
  <path d="M0 80H400" stroke="white" stroke-opacity="0.08" stroke-width="1" />
  <path d="M0 120H400" stroke="white" stroke-opacity="0.08" stroke-width="1" />
  <path d="M0 160H400" stroke="white" stroke-opacity="0.08" stroke-width="1" />
  <path d="M0 200H400" stroke="white" stroke-opacity="0.08" stroke-width="1" />
  <path d="M0 240H400" stroke="white" stroke-opacity="0.08" stroke-width="1" />
  <path d="M0 280H400" stroke="white" stroke-opacity="0.08" stroke-width="1" />
  <path d="M0 320H400" stroke="white" stroke-opacity="0.08" stroke-width="1" />
  <path d="M0 360H400" stroke="white" stroke-opacity="0.08" stroke-width="1" />
  <path d="M0 0V400" stroke="white" stroke-opacity="0.08" stroke-width="1" />
  <path d="M40 0V400" stroke="white" stroke-opacity="0.08" stroke-width="1" />
  <path d="M80 0V400" stroke="white" stroke-opacity="0.08" stroke-width="1" />
  <path d="M120 0V400" stroke="white" stroke-opacity="0.08" stroke-width="1" />
  <path d="M160 0V400" stroke="white" stroke-opacity="0.08" stroke-width="1" />
  <path d="M200 0V400" stroke="white" stroke-opacity="0.08" stroke-width="1" />
  <path d="M240 0V400" stroke="white" stroke-opacity="0.08" stroke-width="1" />
  <path d="M280 0V400" stroke="white" stroke-opacity="0.08" stroke-width="1" />
  <path d="M320 0V400" stroke="white" stroke-opacity="0.08" stroke-width="1" />
  <path d="M360 0V400" stroke="white" stroke-opacity="0.08" stroke-width="1" />
</svg>
